<svg xmlns="http://www.w3.org/2000/svg">
  <symbol id="logo-mobile" width="74" height="23" viewBox="0 0 74 23" fill="currentColor">
    <path d="M.005 1.549c0-.336.13-.66.365-.9C.604.41.922.27 1.257.262H8.39c5.057 0 8.385 2.703 8.385 7.13v.06c0 4.846-4.033 7.358-8.802
      7.358H2.538v6.801a1.28 1.28 0 0 1-.754 1.28 1.269 1.269 0 0 1-1.717-.758 1.28 1.28 0 0 1-.062-.522V1.549Zm8.067 10.968c3.706 0 6.14-1.994
      6.14-4.986v-.06c0-3.21-2.394-4.875-5.961-4.875H2.588v9.881l5.484.04ZM21.593 1.389a1.282 1.282 0 0 1 .755-1.28 1.268 1.268 0 0 1
      1.717.758c.056.168.077.346.062.522v20.222a1.28 1.28 0 0 1-.754 1.28 1.27 1.27 0 0 1-1.717-.758 1.282 1.282 0 0 1-.063-.522V1.389ZM30.674
      1.419A1.278 1.278 0 0 1 31.926.173h.348a1.535 1.535 0 0 1 1.281.737l13.6 17.4V1.36A1.239 1.239 0 0 1 48.389.122c.327 0
      .64.13.871.362.231.232.36.546.36.874v20.292a1.14 1.14 0 0 1-.703 1.092 1.13 1.13 0 0 1-.449.085h-.129a1.695 1.695 0 0 1-1.311-.778L33.117
      4.24v17.41a1.258 1.258 0 0 1-1.191 1.247 1.238 1.238 0 0 1-1.212-1.247V1.42h-.04ZM55.938 1.389a1.282 1.282 0 0 1 .755-1.28 1.268 1.268
      0 0 1 1.717.758c.056.168.077.346.062.522v12.295L71.228.55c.262-.271.618-.432.994-.448a1.27 1.27 0 0 1 1.222 1.256 1.29 1.29 0 0 1-.418.898l-7.947
      7.897 8.573 10.53c.224.26.348.593.348.937a1.312 1.312 0 0 1-.838 1.191 1.228 1.228 0 0 1-1.497-.493L63.3 11.859l-4.828 4.846v4.886a1.27
      1.27 0 0 1-.78 1.17 1.259 1.259 0 0 1-1.648-.685 1.27 1.27 0 0 1-.096-.485V1.389h-.01Z"/>
  </symbol>
  <symbol id="logo-tablet" width="145" height="40" viewBox="0 0 145 40" fill="currentColor">
    <path fill-rule="evenodd" clip-rule="evenodd" d="m53.892 6.586 5.038 21.145a1.418 1.418 0 0 1-.22 1.297 1.356 1.356 0 0 1-1.183.535H53.52c-.69
      5.812-5.57 10.315-11.489 10.315-5.917 0-10.798-4.503-11.488-10.314h-1.965C27.887 35.442 22.953 40 16.968 40c-5.994 0-10.934-4.573-11.612-10.466H1.45a1.388
      1.388 0 0 1-1.154-.536 1.418 1.418 0 0 1-.24-1.267L5.106 6.586C5.455 4.26 7.639 0 13.486 0c.388 0 .76.157 1.034.435.274.279.428.657.428 1.05 0
      .395-.154.772-.428 1.051a1.45 1.45 0 0 1-1.034.435c-4.707 0-5.438 3.694-5.497 4.1L3.341 26.602h2.034c.746-5.817 5.652-10.31 11.593-10.31 5.939 0
      10.843 4.488 11.593 10.3l1.998.01c.745-5.75 5.598-10.189 11.473-10.189 5.886 0 10.746 4.456 11.477 10.222v-.053h2.137l-4.639-19.51c-.068-.407-.77-4.1-5.497-4.1a1.45
      1.45 0 0 1-1.033-.436 1.498 1.498 0 0 1-.428-1.05c0-.394.154-.772.428-1.05A1.45 1.45 0 0 1 45.51 0c5.848 0 8.03 4.259 8.382 6.586Zm-28.22 22.977a9.122 9.122
      0 0 0-.022-2.97c-.725-4.195-4.336-7.383-8.681-7.383-4.349 0-7.961 3.192-8.683 7.391a9.114 9.114 0 0 0-.025 2.94c.66 4.273 4.308 7.541 8.707 7.541 4.392 0
      8.034-3.257 8.704-7.518Zm24.942 0c.073-.461.112-.934.112-1.417 0-4.868-3.893-8.815-8.694-8.815-4.802 0-8.695 3.947-8.695 8.815 0 .482.039.956.112 1.418.669
      4.194 4.257 7.397 8.583 7.397 4.325 0 7.913-3.203 8.582-7.397Z"/>
    <path d="M71.005 18.549c0-.337.13-.66.365-.9.234-.24.552-.379.887-.387h7.133c5.057 0 8.385 2.703 8.385 7.13v.06c0 4.846-4.034 7.358-8.802 7.358h-5.435v6.801a1.282
      1.282 0 0 1-.754 1.28 1.27 1.27 0 0 1-1.717-.758 1.282 1.282 0 0 1-.062-.522V18.549Zm8.067 10.968c3.706 0 6.14-1.994 6.14-4.986v-.06c0-3.21-2.395-4.875-5.961-4.875h-5.663v9.881l5.484.04ZM92.594
      18.389a1.282 1.282 0 0 1 .754-1.28 1.269 1.269 0 0 1 1.717.758c.056.168.078.346.062.522v20.222a1.28 1.28 0 0 1-.754 1.28 1.27 1.27 0 0 1-1.717-.758 1.282 1.282 0 0
      1-.063-.522V18.389ZM101.674 18.419a1.278 1.278 0 0 1 1.252-1.247h.347a1.535 1.535 0 0 1 1.282.738l13.601 17.4V18.36c0-.329.13-.643.361-.875a1.229 1.229 0 0 1 1.742
      0c.231.232.361.546.361.874v20.292c.005.154-.021.308-.076.452a1.13 1.13 0 0 1-1.077.725h-.129a1.69 1.69 0 0 1-1.311-.778l-13.909-17.81v17.41a1.257 1.257 0 0 1-1.192 1.247 1.23
      1.23 0 0 1-1.212-1.246V18.419h-.04ZM126.938 18.389a1.284 1.284 0 0 1 .755-1.28 1.267 1.267 0 0 1 1.45.306 1.287 1.287 0 0 1
      .329.974v12.295l12.756-13.133c.262-.271.617-.432.994-.448.325.012.633.15.86.383.227.234.357.546.362.873a1.28 1.28 0 0 1-.418.897l-7.948 7.898 8.574
      10.53c.224.26.348.593.348.937a1.309 1.309 0 0 1-1.341 1.276 1.228 1.228 0 0 1-.994-.578l-8.365-10.46-4.828 4.846v4.886a1.278 1.278 0 0 1-.37.895 1.26 1.26 0 0
      1-2.154-.895V18.389h-.01Z"/>
  </symbol>
  <symbol id="logo-desktop" width="147" height="40" viewBox="0 0 147 40" fill="currentColor">
    <path d="M72.193 18.425c0-.333.133-.652.369-.89.237-.238.558-.376.897-.384h7.211c5.113 0 8.477 2.676 8.477 7.06v.06c0 4.798-4.078 7.286-8.899 7.286h-5.494v6.734a1.243 1.243 0 0 1-.332.965 1.286 1.286 0 0 1-.948.41 1.304 1.304 0 0 1-.949-.41 1.26 1.26 0 0 1-.332-.965V18.425Zm8.156 10.861c3.746 0 6.207-1.975 6.207-4.937v-.059c0-3.18-2.42-4.828-6.026-4.828h-5.725v9.785l5.544.04ZM94.019 18.267a1.243 1.243 0 0 1 .332-.965 1.286 1.286 0 0 1 .948-.41 1.304 1.304 0 0 1 .949.41 1.258 1.258 0 0 1 .332.965V38.29a1.245 1.245 0 0 1-.332.965 1.284 1.284 0 0 1-.949.41 1.304 1.304 0 0 1-.948-.41 1.26 1.26 0 0 1-.332-.965V18.267ZM103.199 18.297a1.25 1.25 0 0 1 .38-.868c.236-.23.553-.362.885-.367h.352c.261.005.516.075.743.203.226.127.416.31.552.528l13.751 17.23V18.237c0-.324.131-.636.364-.865a1.259 1.259 0 0 1 1.762 0c.233.23.364.54.364.865v20.094a1.117 1.117 0 0 1-.711 1.082 1.161 1.161 0 0 1-.454.083h-.13a1.739 1.739 0 0 1-.756-.23 1.709 1.709 0 0 1-.57-.54L105.67 21.09v17.24a1.238 1.238 0 0 1-.353.853c-.224.23-.529.366-.853.381a1.257 1.257 0 0 1-.871-.369 1.21 1.21 0 0 1-.354-.865V18.296h-.04ZM128.74 18.267a1.243 1.243 0 0 1 .332-.965 1.287 1.287 0 0 1 .949-.41 1.304 1.304 0 0 1 .948.41 1.247 1.247 0 0 1 .332.965v12.175l12.897-13.005c.264-.269.624-.428 1.004-.444.329.013.64.149.87.38.23.232.361.54.365.864a1.261 1.261 0 0 1-.421.889l-8.036 7.82 8.668 10.427c.227.258.352.587.352.928a1.287 1.287 0 0 1-.847 1.18 1.261 1.261 0 0 1-1.083-.08 1.23 1.23 0 0 1-.43-.409l-8.457-10.357-4.882 4.798v4.839a1.238 1.238 0 0 1-.373.886 1.282 1.282 0 0 1-.902.368 1.288 1.288 0 0 1-.902-.368 1.244 1.244 0 0 1-.374-.886V18.267h-.01Z"/>
    <path d="M98.94 9.746a3.678 3.678 0 0 1-2.575-1.047 3.554 3.554 0 0 1-1.07-2.528c0 .948-.384 1.857-1.066 2.528a3.668 3.668 0 0 1-2.57 1.047c.964.002 1.89.381 2.57 1.053a3.554 3.554 0 0 1 1.065 2.53c.003-.949.388-1.86 1.07-2.53a3.688 3.688 0 0 1 2.576-1.053Z" fill="#D22856"/>
    <path d="M43.287 19.067h.733a2.47 2.47 0 0 0-.905-.887 2.523 2.523 0 0 0-1.234-.328c-.418 0-.826-.129-1.166-.368a1.978 1.978 0 0 1-.732-.965c-.724.206-1.427.477-2.1.81h.191c.533 0 1.044.208 1.42.578.377.37.59.873.59 1.397.004.095.004.19 0 .286a8.976 8.976 0 0 1 3.203-.523Z"/>
    <path d="m60.733 27.647-5.192-21.08C55.179 4.245 52.929 0 46.903 0c-.4 0-.783.156-1.066.434a1.469 1.469 0 0 0-.44 1.047c0 .393.158.77.44 1.047a1.52 1.52 0 0 0 1.066.434c4.871 0 5.594 3.683 5.665 4.088l4.78 19.452H55.25a11.721 11.721 0 0 0-1.724-4.78 11.946 11.946 0 0 0-3.599-3.633 2.502 2.502 0 0 0-1.116.908c-.274.404-.42.878-.42 1.363.005.086.005.171 0 .257a9.148 9.148 0 0 1 2.922 3.207 8.974 8.974 0 0 1 1.095 4.169 9.042 9.042 0 0 1-.14 1.48 8.849 8.849 0 0 1-3.05 5.393 9.132 9.132 0 0 1-5.885 2.141 9.132 9.132 0 0 1-5.885-2.141 8.849 8.849 0 0 1-3.049-5.392 9.031 9.031 0 0 1-.14-1.481c.015-1.37.341-2.72.954-3.95a2.023 2.023 0 0 1-1.33-.625 1.957 1.957 0 0 1-.538-1.35.694.694 0 0 0-.191-.483 11.566 11.566 0 0 0-1.798 4.936h-1.868a11.782 11.782 0 0 0-3.933-7.54 12.17 12.17 0 0 0-8.05-3.03 12.17 12.17 0 0 0-8.05 3.03 11.782 11.782 0 0 0-3.932 7.54H3.443L8.233 7.05c.061-.405.814-4.088 5.666-4.088.4 0 .783-.156 1.065-.434.282-.277.441-.654.441-1.047 0-.393-.159-.77-.441-1.047A1.52 1.52 0 0 0 13.899 0C7.872 0 5.623 4.246 5.26 6.566L.058 27.647a1.38 1.38 0 0 0 .247 1.263c.14.176.322.316.529.41.207.092.433.135.66.124h4.018c.082.611.21 1.215.382 1.807a.731.731 0 0 0 .1-.355c0-.524.212-1.026.589-1.397.376-.37.887-.578 1.42-.578.163.002.325.025.482.069a8.835 8.835 0 0 1-.07-1.037c.002-.496.046-.991.13-1.48a8.848 8.848 0 0 1 3.042-5.414 9.131 9.131 0 0 1 5.897-2.152c2.165 0 4.258.763 5.898 2.152a8.848 8.848 0 0 1 3.041 5.413c.085.49.128.985.131 1.481a8.87 8.87 0 0 1-2.665 6.267 9.18 9.18 0 0 1-6.374 2.62 9.146 9.146 0 0 1-5.454-1.708c-.363.31-.826.48-1.306.483a.76.76 0 0 0-.526.22.734.734 0 0 0-.217.521 1.946 1.946 0 0 1-.181.8 12.088 12.088 0 0 0 7.643 2.705 12.174 12.174 0 0 0 8.012-2.951 11.789 11.789 0 0 0 4-7.436h1.829a11.784 11.784 0 0 0 3.944 7.51A12.171 12.171 0 0 0 43.292 40c2.964 0 5.823-1.073 8.033-3.015a11.784 11.784 0 0 0 3.944-7.511h4.018c.232.016.465-.024.678-.117.212-.093.398-.236.541-.417a1.38 1.38 0 0 0 .227-1.293Z"/>
    <path d="M50.92 15.917a4.576 4.576 0 0 1-1.729-.335 4.515 4.515 0 0 1-1.466-.96 4.431 4.431 0 0 1-.98-1.44 4.37 4.37 0 0 1-.344-1.699 4.406 4.406 0 0 1-1.328 3.136 4.56 4.56 0 0 1-3.192 1.298 4.57 4.57 0 0 1 3.193 1.304 4.416 4.416 0 0 1 1.327 3.14c0-1.18.476-2.31 1.323-3.143a4.56 4.56 0 0 1 3.196-1.301ZM38.074 19.383a2.786 2.786 0 0 1-1.953-.796 2.692 2.692 0 0 1-.809-1.92c0 .719-.29 1.408-.805 1.917a2.786 2.786 0 0 1-1.947.799c.73 0 1.43.285 1.946.792.516.507.806 1.196.806 1.913a2.693 2.693 0 0 1 .813-1.914 2.786 2.786 0 0 1 1.95-.791ZM10.785 33.64a2.786 2.786 0 0 1-1.94-.802 2.692 2.692 0 0 1-.802-1.913c0 .719-.29 1.408-.805 1.917a2.786 2.786 0 0 1-1.947.799c.73.002 1.43.29 1.947.799.515.508.805 1.198.805 1.916 0-.717.288-1.404.802-1.913a2.786 2.786 0 0 1 1.94-.802Z" fill="#D22856"/>
  </symbol>
  <symbol id="appstore" width="47" height="56" viewBox="0 0 47 56" fill="none">
    <path d="M39.245 29.74a12.09 12.09 0 0 0 2.127 6.787A12.668 12.668 0 0 0 47 41.063a29.794 29.794 0 0 1-4 7.96c-2.401 3.413-4.905 6.816-8.844 6.904-3.938.09-5.088-2.219-9.526-2.219-4.437 0-5.8 2.15-9.465 2.288-3.663.139-6.686-3.718-9.088-7.111-4.956-6.905-8.752-19.639-3.664-28.2a13.925 13.925 0 0 1 5.024-5.037 14.489 14.489 0 0 1 6.935-1.977c3.724-.069 7.246 2.427 9.526 2.427 2.28 0 6.564-3.009 11.062-2.565a13.85 13.85 0 0 1 5.954 1.576 13.387 13.387 0 0 1 4.61 3.977c-.275.168-6.31 3.571-6.249 10.653h-.03ZM31.978 8.936C34.16 6.46 35.238 3.247 34.981 0c-3.305.302-6.364 1.82-8.55 4.241-1.862 2.092-3.5 5.445-3.053 8.66 3.247.247 6.555-1.597 8.57-3.945" fill="#fff"/>
  </symbol>
  <symbol id="google-play" width="43" height="47" viewBox="0 0 43 47" fill="none" >
    <path d="M34.886 14.062H8.114v19.133a3.553 3.553 0 0 0 .96 2.468 3.697 3.697 0 0 0 2.422 1.159v7.453c.044.737.374 1.43.922 1.936a2.986 2.986 0 0 0 2.026.789c.753 0 1.478-.282 2.026-.789a2.869 2.869 0 0 0 .922-1.936v-7.433h8.236v7.433c.045.737.375 1.43.922 1.936a2.985 2.985 0 0 0 2.026.789c.754 0 1.478-.282 2.026-.789a2.869 2.869 0 0 0 .922-1.936v-7.453a3.707 3.707 0 0 0 2.426-1.158c.63-.673.975-1.555.967-2.468V14.402l-.03-.34ZM2.953 15.745c.78 0 1.53.304 2.081.845.552.54.862 1.275.862 2.04v12.402c.001.38-.074.756-.22 1.107a2.88 2.88 0 0 1-.638.94 2.947 2.947 0 0 1-.956.627 2.995 2.995 0 0 1-3.217-.627A2.866 2.866 0 0 1 0 31.032V18.63c0-.38.076-.756.225-1.107a2.9 2.9 0 0 1 1.599-1.562 2.995 2.995 0 0 1 1.13-.216Zm37.104 0c.78 0 1.53.304 2.081.845.552.54.862 1.275.862 2.04v12.402a2.845 2.845 0 0 1-.858 2.047 2.947 2.947 0 0 1-.956.627 2.994 2.994 0 0 1-3.217-.627 2.867 2.867 0 0 1-.865-2.047V18.63c0-.38.076-.756.225-1.107.148-.35.366-.669.64-.937.275-.268.6-.48.959-.625a2.995 2.995 0 0 1 1.129-.216ZM8.175 12.058h26.568a10.404 10.404 0 0 0-3.26-7.293L34.049.498a.307.307 0 0 0-.122-.461.322.322 0 0 0-.42.11l-2.42 4.157A16.708 16.708 0 0 0 21.458.898a16.977 16.977 0 0 0-9.575 3.406L9.504.187a.325.325 0 0 0-.184-.16.333.333 0 0 0-.246.01.315.315 0 0 0-.112.42l2.493 4.238a10.443 10.443 0 0 0-3.28 7.363Zm17.699-5.21c0-.398.161-.78.449-1.062a1.55 1.55 0 0 1 2.167 0c.288.282.45.664.45 1.063 0 .398-.162.78-.45 1.062-.287.282-.677.44-1.084.44-.406 0-.796-.158-1.083-.44a1.488 1.488 0 0 1-.45-1.062Zm-11.384 0c0-.398.162-.78.449-1.062a1.554 1.554 0 0 1 2.168 0c.287.282.449.664.449 1.063 0 .398-.162.78-.45 1.062-.287.282-.677.44-1.083.44-.407 0-.797-.158-1.084-.44a1.488 1.488 0 0 1-.449-1.062Z" fill="#A4C639"/>
  </symbol>
  <symbol id="ms-store" width="44" height="41" viewBox="0 0 44 41" fill="none">
    <path d="M20.908 19.524H0V0h20.908v19.524Z" fill="#F05423"/>
    <path d="M44 19.524H23.092V0H44v19.524Z" fill="#84C441"/>
    <path d="M20.908 41H0V21.476h20.908V41Z" fill="#2DABE2"/>
    <path d="M44 41H23.092V21.476H44V41Z" fill="#F9BC15"/>
  </symbol>
  <symbol id="slider-arrow" width="22" height="41" viewBox="0 0 22 41" fill="currentColor">
    <path d="M2.0413 20.5035L21.7483 1.4144C21.8281 1.3379 21.8914 1.24683 21.9346 1.14646C21.9778 1.04608 22 0.938398 22 0.829635C22 0.720871 21.9778 0.613187 21.9346 0.512814C21.8914 0.41244 21.8281 0.321369 21.7483 0.24487C21.6686 0.167255 21.5738 0.105671 21.4694 0.0636507C21.365 0.0216304 21.2532 0 21.1401 0C21.0271 0 20.9153 0.0216304 20.8109 0.0636507C20.7065 0.105671 20.6117 0.167255 20.532 0.24487L0.252535 19.9088C0.17249 19.9862 0.108978 20.0781 0.0656429 20.1793C0.0223074 20.2805 0 20.389 0 20.4985C0 20.6081 0.0223074 20.7166 0.0656429 20.8178C0.108978 20.919 0.17249 21.0109 0.252535 21.0883L20.532 40.7621C20.6967 40.9157 20.9167 41.001 21.1453 41C21.3139 40.9985 21.4783 40.9488 21.6181 40.8572C21.7578 40.7656 21.8666 40.6362 21.9309 40.485C21.9952 40.3339 22.0122 40.1677 21.9797 40.0072C21.9473 39.8467 21.8668 39.6991 21.7483 39.5827L2.0413 20.5035Z"/>
  </symbol>
  <symbol id="footer-logo-mobile" width="145" height="40" viewBox="0 0 145 40" fill="currentColor">
    <path d="M71.005 18.549c0-.337.13-.66.365-.9.234-.24.552-.379.887-.387h7.133c5.057 0 8.385 2.703 8.385 7.13v.06c0 4.846-4.034 7.358-8.802 7.358h-5.435v6.801a1.282 1.282 0 0 1-.754 1.28 1.27 1.27 0 0 1-1.717-.758 1.282 1.282 0 0 1-.062-.522V18.549Zm8.067 10.968c3.706 0 6.14-1.994 6.14-4.986v-.06c0-3.21-2.395-4.875-5.961-4.875h-5.663v9.881l5.484.04ZM92.594 18.389a1.282 1.282 0 0 1 .754-1.28 1.269 1.269 0 0 1 1.717.758c.056.168.078.346.062.522v20.222a1.28 1.28 0 0 1-.754 1.28 1.27 1.27 0 0 1-1.717-.758 1.282 1.282 0 0 1-.063-.522V18.389ZM101.674 18.419a1.278 1.278 0 0 1 1.252-1.247h.347a1.535 1.535 0 0 1 1.282.738l13.601 17.4V18.36c0-.329.13-.643.361-.875a1.229 1.229 0 0 1 1.742 0c.231.232.361.546.361.874v20.292c.005.154-.021.308-.076.452a1.13 1.13 0 0 1-1.077.725h-.129a1.69 1.69 0 0 1-1.311-.778l-13.909-17.81v17.41a1.257 1.257 0 0 1-1.192 1.247 1.23 1.23 0 0 1-1.212-1.246V18.419h-.04ZM126.938 18.389a1.284 1.284 0 0 1 .755-1.28 1.267 1.267 0 0 1 1.45.306 1.287 1.287 0 0 1 .329.974v12.295l12.756-13.133c.262-.271.617-.432.994-.448.325.012.633.15.86.383.227.234.357.546.362.873a1.28 1.28 0 0 1-.418.897l-7.948 7.898 8.574 10.53c.224.26.348.593.348.937a1.309 1.309 0 0 1-1.341 1.276 1.228 1.228 0 0 1-.994-.578l-8.365-10.46-4.828 4.846v4.886a1.278 1.278 0 0 1-.37.895 1.26 1.26 0 0 1-2.154-.895V18.389h-.01Z"/>
    <path fill-rule="evenodd" clip-rule="evenodd" d="m53.892 6.586 5.038 21.145a1.418 1.418 0 0 1-.22 1.297 1.356 1.356 0 0 1-1.183.535H53.52c-.69 5.812-5.57 10.315-11.489 10.315-5.917 0-10.798-4.503-11.488-10.314h-1.965C27.887 35.442 22.953 40 16.968 40c-5.994 0-10.934-4.573-11.612-10.466H1.45a1.364 1.364 0 0 1-1.154-.536 1.418 1.418 0 0 1-.24-1.267L5.106 6.586C5.455 4.26 7.639 0 13.486 0c.388 0 .76.157 1.034.435.274.279.428.657.428 1.05 0 .395-.154.772-.428 1.051a1.45 1.45 0 0 1-1.034.435c-4.707 0-5.438 3.694-5.497 4.1L3.341 26.602h2.034c.746-5.817 5.652-10.31 11.593-10.31 5.939 0 10.843 4.488 11.593 10.3l1.998.01c.745-5.75 5.598-10.189 11.473-10.189 5.886 0 10.746 4.456 11.477 10.222v-.053h2.137l-4.639-19.51c-.068-.407-.77-4.1-5.497-4.1a1.45 1.45 0 0 1-1.033-.436 1.498 1.498 0 0 1-.428-1.05c0-.394.154-.772.428-1.05A1.45 1.45 0 0 1 45.51 0c5.848 0 8.03 4.259 8.382 6.586Zm-28.22 22.977a9.122 9.122 0 0 0-.022-2.97c-.725-4.195-4.336-7.383-8.681-7.383-4.349 0-7.961 3.192-8.683 7.391a9.114 9.114 0 0 0-.025 2.94c.66 4.273 4.308 7.541 8.707 7.541 4.392 0 8.034-3.257 8.704-7.518Zm24.942 0c.073-.461.112-.934.112-1.417 0-4.868-3.893-8.815-8.694-8.815-4.802 0-8.695 3.947-8.695 8.815 0 .482.039.956.112 1.418.669 4.194 4.257 7.397 8.583 7.397 4.325 0 7.913-3.203 8.582-7.397Z" fill="#D22856"/>
  </symbol>
  <symbol id="footer-logo-desktop" width="147" height="40" viewBox="0 0 147 40" fill="currentColor">
    <path d="M72.193 18.425c0-.333.133-.652.369-.89.237-.238.558-.376.897-.384h7.211c5.113 0 8.477 2.676 8.477 7.06v.06c0 4.798-4.078 7.287-8.899 7.287h-5.494v6.734a1.243 1.243 0 0 1-.332.965 1.286 1.286 0 0 1-.948.41 1.304 1.304 0 0 1-.949-.41 1.26 1.26 0 0 1-.332-.965V18.425Zm8.156 10.861c3.746 0 6.207-1.974 6.207-4.937v-.059c0-3.18-2.42-4.828-6.026-4.828h-5.725v9.785l5.544.04ZM94.019 18.267a1.244 1.244 0 0 1 .332-.965 1.287 1.287 0 0 1 .948-.41 1.304 1.304 0 0 1 .949.41 1.26 1.26 0 0 1 .332.965v20.024a1.245 1.245 0 0 1-.332.966 1.285 1.285 0 0 1-.949.41 1.304 1.304 0 0 1-.948-.41 1.26 1.26 0 0 1-.332-.965V18.267ZM103.199 18.296a1.25 1.25 0 0 1 .38-.867c.236-.23.553-.362.885-.367h.352c.261.005.516.075.743.203.226.127.416.309.552.528l13.751 17.23V18.237c0-.325.131-.636.364-.866a1.259 1.259 0 0 1 1.762 0c.233.23.364.541.364.866v20.094a1.117 1.117 0 0 1-.711 1.082 1.16 1.16 0 0 1-.454.083h-.13a1.739 1.739 0 0 1-.756-.231 1.708 1.708 0 0 1-.57-.54L105.67 21.092v17.24a1.238 1.238 0 0 1-.353.853c-.224.23-.529.366-.853.38a1.257 1.257 0 0 1-.871-.368 1.21 1.21 0 0 1-.354-.865V18.296h-.04ZM128.74 18.267a1.26 1.26 0 0 1 .763-1.268 1.304 1.304 0 0 1 1.466.303 1.25 1.25 0 0 1 .333.965v12.175l12.896-13.004c.264-.27.624-.428 1.004-.445.329.013.64.149.87.38.23.232.361.541.366.864a1.277 1.277 0 0 1-.422.889l-8.035 7.82 8.668 10.427c.226.258.351.588.351.928a1.283 1.283 0 0 1-.41.91 1.322 1.322 0 0 1-.946.354 1.228 1.228 0 0 1-1.004-.572l-8.447-10.358-4.891 4.799v4.838a1.257 1.257 0 0 1-.788 1.159 1.297 1.297 0 0 1-1.39-.273 1.257 1.257 0 0 1-.374-.886V18.267h-.01Z"/>
    <path d="M98.94 9.746a3.678 3.678 0 0 1-2.575-1.047 3.554 3.554 0 0 1-1.07-2.528c0 .948-.384 1.858-1.066 2.528a3.668 3.668 0 0 1-2.57 1.047c.964.002 1.89.381 2.57 1.053a3.554 3.554 0 0 1 1.065 2.531c.003-.95.388-1.86 1.07-2.531a3.688 3.688 0 0 1 2.576-1.053ZM43.287 19.067h.733a2.47 2.47 0 0 0-.905-.887 2.524 2.524 0 0 0-1.234-.328c-.418 0-.826-.129-1.166-.368a1.978 1.978 0 0 1-.732-.965c-.724.205-1.427.476-2.1.81h.191c.533 0 1.044.208 1.42.578.377.37.59.873.59 1.396.004.096.004.191 0 .287a8.974 8.974 0 0 1 3.203-.523Z" fill="#D22856"/>
    <path d="m60.733 27.647-5.192-21.08C55.179 4.245 52.929 0 46.903 0c-.4 0-.783.156-1.066.434a1.469 1.469 0 0 0-.44 1.047c0 .393.158.77.44 1.047a1.52 1.52 0 0 0 1.066.434c4.871 0 5.594 3.683 5.665 4.088l4.78 19.452H55.25a11.721 11.721 0 0 0-1.724-4.78 11.946 11.946 0 0 0-3.599-3.633 2.502 2.502 0 0 0-1.116.908c-.274.404-.42.878-.42 1.363.005.086.005.171 0 .257a9.148 9.148 0 0 1 2.922 3.207 8.974 8.974 0 0 1 1.095 4.169 9.042 9.042 0 0 1-.14 1.48 8.849 8.849 0 0 1-3.05 5.393 9.132 9.132 0 0 1-5.885 2.141 9.132 9.132 0 0 1-5.885-2.141 8.849 8.849 0 0 1-3.049-5.392 9.031 9.031 0 0 1-.14-1.481c.015-1.37.341-2.72.954-3.95a2.023 2.023 0 0 1-1.33-.625 1.957 1.957 0 0 1-.538-1.35.694.694 0 0 0-.191-.483 11.566 11.566 0 0 0-1.798 4.936h-1.868a11.782 11.782 0 0 0-3.933-7.54 12.17 12.17 0 0 0-8.05-3.03 12.17 12.17 0 0 0-8.05 3.03 11.782 11.782 0 0 0-3.932 7.54H3.443L8.233 7.05c.061-.405.814-4.088 5.666-4.088.4 0 .783-.156 1.065-.434.282-.277.441-.654.441-1.047 0-.393-.159-.77-.441-1.047A1.52 1.52 0 0 0 13.899 0C7.872 0 5.623 4.246 5.26 6.566L.058 27.647a1.38 1.38 0 0 0 .247 1.263c.14.176.322.316.529.41.207.092.433.135.66.124h4.018c.082.611.21 1.215.382 1.807a.731.731 0 0 0 .1-.355c0-.524.212-1.026.589-1.397.376-.37.887-.578 1.42-.578.162.004.324.024.482.06a8.536 8.536 0 0 1-.07-.988c.002-.497.046-.992.13-1.481a8.848 8.848 0 0 1 3.042-5.414 9.131 9.131 0 0 1 5.897-2.152c2.165 0 4.258.764 5.898 2.152a8.848 8.848 0 0 1 3.041 5.414c.085.49.128.984.131 1.48a8.775 8.775 0 0 1-1.334 4.7 8.984 8.984 0 0 1-3.656 3.298 9.174 9.174 0 0 1-9.503-.858c-.363.31-.826.48-1.306.483a.76.76 0 0 0-.526.22.734.734 0 0 0-.217.521 1.946 1.946 0 0 1-.181.8 12.088 12.088 0 0 0 7.643 2.705 12.174 12.174 0 0 0 8.012-2.951 11.789 11.789 0 0 0 4-7.436h1.829a11.784 11.784 0 0 0 3.944 7.51A12.171 12.171 0 0 0 43.292 40c2.964 0 5.823-1.073 8.033-3.015a11.784 11.784 0 0 0 3.944-7.511h4.018c.232.016.465-.024.678-.117.212-.093.398-.236.541-.417a1.38 1.38 0 0 0 .227-1.293Z" fill="#D22856"/>
    <path d="M50.92 15.917a4.577 4.577 0 0 1-1.729-.335 4.516 4.516 0 0 1-1.466-.96 4.43 4.43 0 0 1-.98-1.44 4.37 4.37 0 0 1-.344-1.699 4.406 4.406 0 0 1-1.328 3.136 4.56 4.56 0 0 1-3.192 1.298 4.57 4.57 0 0 1 3.193 1.304 4.416 4.416 0 0 1 1.327 3.14c0-1.18.476-2.31 1.323-3.143a4.56 4.56 0 0 1 3.196-1.301ZM38.074 19.383a2.786 2.786 0 0 1-1.953-.796 2.692 2.692 0 0 1-.809-1.92c0 .719-.29 1.408-.805 1.917a2.786 2.786 0 0 1-1.947.799c.73 0 1.43.285 1.946.792.516.508.806 1.196.806 1.913a2.692 2.692 0 0 1 .813-1.913 2.786 2.786 0 0 1 1.95-.792ZM10.785 33.64a2.786 2.786 0 0 1-1.94-.802 2.692 2.692 0 0 1-.802-1.913c0 .719-.29 1.408-.805 1.917a2.786 2.786 0 0 1-1.947.799c.73.002 1.43.29 1.947.798.515.51.805 1.199.805 1.917 0-.717.288-1.404.802-1.913a2.786 2.786 0 0 1 1.94-.802Z"/>
  </symbol>
  <symbol id="vk-icon" width="18" height="18" viewBox="0 0 18 18" fill="currentColor">
    <g clip-path="url(#a)">
      <path fill-rule="evenodd" clip-rule="evenodd" d="M17.587 4.711c.125-.41 0-.711-.596-.711h-1.968c-.502 0-.732.26-.858.548 0 0-1.001 2.396-2.42 3.954-.458.451-.667.594-.917.594-.125 0-.314-.143-.314-.553V4.71c0-.492-.138-.711-.555-.711H6.863c-.313 0-.5.228-.5.445 0 .465.709.574.781 1.885v2.848c0 .625-.114.738-.365.738-.667 0-2.291-2.408-3.255-5.164C3.337 4.216 3.148 4 2.645 4H.675C.112 4 0 4.26 0 4.548 0 5.059.667 7.6 3.109 10.96 4.736 13.256 7.027 14.5 9.115 14.5c1.252 0 1.406-.276 1.406-.752v-1.735c0-.553.118-.663.515-.663.293 0 .793.144 1.962 1.25 1.335 1.312 1.554 1.9 2.306 1.9h1.969c.562 0 .844-.276.682-.822-.178-.543-.816-1.331-1.661-2.267-.46-.532-1.148-1.106-1.357-1.393-.292-.368-.208-.533 0-.86 0 0 2.4-3.32 2.65-4.447Z"/>
    </g>
    <defs>
      <clipPath id="a">
        <path fill="#fff" d="M0 0h18v18H0z"/>
      </clipPath>
    </defs>
  </symbol>
  <symbol id="telegram-icon" width="18" height="18" viewBox="0 0 18 18" fill="currentColor">
    <path d="M16.703 3.202 14.327 14.41c-.18.79-.647.988-1.311.615l-3.622-2.668-1.747 1.68c-.193.194-.355.355-.728.355l.26-3.687 6.712-6.065c.292-.26-.064-.404-.453-.144L5.14 9.721 1.569 8.603c-.777-.243-.791-.777.162-1.15L15.7 2.07c.648-.242 1.213.144 1.002 1.133v-.001Z"/>
  </symbol>
  <symbol id="youtube-icon" width="18" height="18" viewBox="0 0 18 18" fill="currentColor">
    <path d="M3.834 15.809a1.257 1.257 0 0 1-1.285.03 1.097 1.097 0 0 1-.443-.457.97.97 0 0 1-.092-.603V4.221a.97.97 0 0 1 .092-.603c.095-.189.249-.348.443-.458a1.256 1.256 0 0 1 1.285.031l12.4 5.502c1.022.445 1.022 1.169 0 1.614l-12.4 5.502Z"/>
  </symbol>
  <symbol id="html-academy-logo" width="27" height="34" viewBox="0 0 27 34" fill="currentColor">
    <path d="M13.643.016 13.5 0 0 1.407v24.606L13.5 34 27 26.013V1.407L13.643.016Zm11.591 25L13.5 31.956 1.766 25.015V14.93l11.685 6.916.02 1.253-8.017-4.743-.011 1.225 8.046 4.809.02 1.286-8.045-4.758-.01 1.226L13.5 26.95l8.124-4.833V16.91l3.62-2.15-.01 10.256Zm0-11.564-3.22 1.88-1.482.875-7.065-4.187-.011 1.225 6.04 3.573-.053.031-.13.076-.86.492-4.986-2.948-.011 1.225 3.936 2.328-.933.61-.021.012-2.971-1.742-.011 1.225 1.947 1.135-1.988 1.186-11.618-6.872 11.638-6.958 11.8 6.834Zm0-1.225L13.44 5.31 1.766 12.22V2.99L13.5 1.764 25.234 2.99v9.237Z"/>
  </symbol>
  <symbol id="btn-crop" width="44" height="44" viewBox="0 0 44 44" fill="currentColor">
    <path d="M32 28H36V12C36 10.9391 35.5786 9.92172 34.8284 9.17157C34.0783 8.42143 33.0609 8 32 8H16V12H32V28ZM12 32V0H8V8H0V12H8V32C8 33.0609 8.42143 34.0783 9.17157 34.8284C9.92172 35.5786 10.9391 36 12 36H32V44H36V36H44V32H12Z"/>
  </symbol>
  <symbol id="btn-fill" width="48" height="43" viewBox="0 0 48 43" fill="currentColor">
    <path d="M33.12 17.88L15.24 0L12.41 2.83L17.17 7.59L6.88 17.88C6.3182 18.4425 6.00264 19.205 6.00264 20C6.00264 20.795 6.3182 21.5575 6.88 22.12L17.88 33.12C18.4425 33.6818 19.205 33.9974 20 33.9974C20.795 33.9974 21.5575 33.6818 22.12 33.12L33.12 22.12C33.6818 21.5575 33.9974 20.795 33.9974 20C33.9974 19.205 33.6818 18.4425 33.12 17.88ZM10.41 20L20 10.42L29.59 20H10.41ZM38 23C38 23 34 27.33 34 30C34 31.0609 34.4214 32.0783 35.1716 32.8284C35.9217 33.5786 36.9391 34 38 34C39.0609 34 40.0783 33.5786 40.8284 32.8284C41.5786 32.0783 42 31.0609 42 30C42 27.33 38 23 38 23Z"/>
    <path d="M48 40H0V43H48V40Z"/>
  </symbol>
  <symbol id="btn-contrast" width="32" height="32" viewBox="0 0 32 32" fill="currentColor">
    <path d="M16 4C18.3734 4 20.6935 4.70379 22.6669 6.02236C24.6402 7.34094 26.1783 9.21509 27.0866 11.4078C27.9948 13.6005 28.2325 16.0133 27.7694 18.3411C27.3064 20.6689 26.1635 22.8071 24.4853 24.4853C22.8071 26.1635 20.6689 27.3064 18.3411 27.7694C16.0133 28.2324 13.6005 27.9948 11.4078 27.0866C9.21509 26.1783 7.34095 24.6402 6.02237 22.6668C4.70379 20.6935 4.00001 18.3734 4.00001 16C4.00001 12.8174 5.26429 9.76515 7.51473 7.51472C9.76516 5.26428 12.8174 4 16 4ZM16 0C12.8355 0 9.74207 0.938384 7.11088 2.69649C4.4797 4.45459 2.42894 6.95345 1.21793 9.87706C0.0069325 12.8007 -0.309921 16.0177 0.307443 19.1214C0.924806 22.2251 2.44866 25.0761 4.6863 27.3137C6.92394 29.5513 9.77487 31.0752 12.8786 31.6926C15.9823 32.3099 19.1993 31.9931 22.1229 30.7821C25.0466 29.5711 27.5454 27.5203 29.3035 24.8891C31.0616 22.2579 32 19.1645 32 16C32 11.7565 30.3143 7.68687 27.3137 4.68629C24.3131 1.68571 20.2435 0 16 0Z"/>
    <path d="M16 24.29C18.1536 24.1422 20.1708 23.1824 21.644 21.6046C23.1172 20.0268 23.9366 17.9486 23.9366 15.79C23.9366 13.6314 23.1172 11.5532 21.644 9.97538C20.1708 8.39759 18.1536 7.43782 16 7.29"/>
  </symbol>
</svg>
